<svg width="19" height="15" viewBox="0 0 19 15" fill="none" xmlns="http://www.w3.org/2000/svg">
<path d="M18.6568 2.01043L16.9896 0.343176C16.7678 0.123305 16.4682 -6.10352e-05 16.1559 -6.10352e-05C15.8437 -6.10352e-05 15.544 0.123305 15.3223 0.343176L7.28114 8.3968L3.67708 4.78086C3.56923 4.67003 3.43985 4.58242 3.29691 4.5234C3.15396 4.46438 3.00046 4.43521 2.84583 4.43768C2.6912 4.43521 2.5377 4.46438 2.39476 4.5234C2.25181 4.58242 2.12244 4.67003 2.01458 4.78086L0.343176 6.44752C0.123305 6.66926 -6.10352e-05 6.96888 -6.10352e-05 7.28115C-6.10352e-05 7.59341 0.123305 7.89303 0.343176 8.11477L4.78027 12.5519L6.44752 14.2191C6.66926 14.439 6.96888 14.5624 7.28114 14.5624C7.59341 14.5624 7.89303 14.439 8.11477 14.2191L9.78202 12.5519L18.6568 3.67768C18.8767 3.45594 19 3.15632 19 2.84405C19 2.53178 18.8767 2.23216 18.6568 2.01043Z" fill="#0C8543"/>
</svg>
